<svg width="311" height="90" viewBox="0 0 311 90" fill="none" xmlns="http://www.w3.org/2000/svg">
    <path fill-rule="evenodd" clip-rule="evenodd"
        d="M0.985725 19.5067C2.29897 18.1988 4.42694 18.2 5.73869 19.5094L37.4555 51.1698L69.2098 19.5081C70.5223 18.1994 72.6502 18.1994 73.9627 19.5081C75.2752 20.8168 75.2752 22.9385 73.9627 24.2472L42.2057 55.9117L47.9596 61.6553L48.022 61.7249C49.6657 63.5595 51.0737 65.2963 52.0349 67.2209C53.0455 69.2443 53.4856 71.3103 53.4856 73.7234C53.4856 82.5635 46.3155 89.7127 37.4495 89.7127C28.5836 89.7127 21.4135 82.5635 21.4135 73.7234C21.4135 71.2959 21.8713 69.2187 22.8846 67.1982C23.85 65.2729 25.2542 63.5393 26.8753 61.7269L26.9392 61.6555L32.7025 55.909L0.98302 24.2459C-0.328729 22.9364 -0.327518 20.8147 0.985725 19.5067ZM37.4528 60.6508L31.8286 66.2585C30.3195 67.9506 29.4361 69.1196 28.8966 70.1954C28.3975 71.1908 28.1352 72.2253 28.1352 73.7234C28.1352 78.862 32.2959 83.0106 37.4495 83.0106C42.6032 83.0106 46.7639 78.862 46.7639 73.7234C46.7639 72.211 46.5078 71.1892 46.0181 70.2086C45.486 69.1434 44.6058 67.9769 43.0708 66.2588L37.4528 60.6508Z"
        fill="#5A5CF8" />
</svg>